<svg xmlns="http://www.w3.org/2000/svg" viewBox="0 0 32 32" fill="none">
  <rect width="32" height="32" rx="6" fill="#18181b"/>
  <path d="M9 17a2 2 0 11-4 0 2 2 0 014 0zM27 17a2 2 0 11-4 0 2 2 0 014 0z" fill="#fff"/>
  <path d="M11 16V8a1 1 0 011-1h6a1 1 0 011 1v8m-8 0a1 1 0 01-1 1h-1m9-1a1 1 0 011-1h2.586a1 1 0 01.707.293l2.414 2.414a1 1 0 01.293.707V18a1 1 0 01-1 1h-1" stroke="#fff" stroke-width="1.5" stroke-linecap="round" stroke-linejoin="round"/>
  <circle cx="11" cy="19" r="2" fill="#fff"/>
  <circle cx="21" cy="19" r="2" fill="#fff"/>
</svg>
